<?xml version="1.0" encoding="UTF-8" standalone="no"?>
<!-- Created with Inkscape (http://www.inkscape.org/) -->

<svg
   width="100mm"
   height="100mm"
   viewBox="0 0 100 100"
   version="1.1"
   id="svg1"
   sodipodi:docname="logo2.svg"
   inkscape:version="1.3.2 (091e20e, 2023-11-25, custom)"
   inkscape:export-filename="logo2.png"
   inkscape:export-xdpi="254"
   inkscape:export-ydpi="254"
   xmlns:inkscape="http://www.inkscape.org/namespaces/inkscape"
   xmlns:sodipodi="http://sodipodi.sourceforge.net/DTD/sodipodi-0.dtd"
   xmlns="http://www.w3.org/2000/svg"
   xmlns:svg="http://www.w3.org/2000/svg">
  <sodipodi:namedview
     id="namedview1"
     pagecolor="#ffffff"
     bordercolor="#000000"
     borderopacity="0.25"
     inkscape:showpageshadow="2"
     inkscape:pageopacity="0.0"
     inkscape:pagecheckerboard="0"
     inkscape:deskcolor="#d1d1d1"
     inkscape:document-units="mm"
     inkscape:zoom="0.62162861"
     inkscape:cx="144.78098"
     inkscape:cy="-52.282021"
     inkscape:window-width="1920"
     inkscape:window-height="1009"
     inkscape:window-x="-8"
     inkscape:window-y="-8"
     inkscape:window-maximized="1"
     inkscape:current-layer="layer1" />
  <defs
     id="defs1">
    <inkscape:path-effect
       effect="fillet_chamfer"
       id="path-effect4"
       is_visible="true"
       lpeversion="1"
       nodesatellites_param="F,0,0,1,0,3.175,0,1 @ F,0,0,1,0,3.175,0,1 @ F,0,0,1,0,3.175,0,1 @ F,0,0,1,0,3.175,0,1"
       radius="12"
       unit="px"
       method="auto"
       mode="F"
       chamfer_steps="1"
       flexible="false"
       use_knot_distance="true"
       apply_no_radius="true"
       apply_with_radius="true"
       only_selected="false"
       hide_knots="false" />
    <rect
       x="75.939217"
       y="317.564"
       width="672.40723"
       height="476.34598"
       id="rect1" />
  </defs>
  <g
     inkscape:label="Layer 1"
     inkscape:groupmode="layer"
     id="layer1"
     transform="translate(-68.273764,-104.87143)">
    <rect
       style="fill:#ffffff;stroke:none;stroke-width:3;stroke-linecap:round;stroke-linejoin:round;stroke-miterlimit:0;fill-opacity:1"
       id="rect2"
       width="100"
       height="100"
       x="68.273766"
       y="104.87143" />
    <path
       d="m 149.33569,126.42872 c -0.74083,0 -1.37562,0.26459 -1.90479,0.79375 l -5.18573,5.18626 c -0.42333,0.4586 -0.6351,1.05802 -0.6351,1.79883 0,0.77612 0.24664,1.42886 0.74052,1.95804 0.52917,0.49387 1.18191,0.74104 1.95802,0.74104 0.74083,0 1.3582,-0.24717 1.85208,-0.74104 l 5.13302,-5.13302 c 0.28222,-0.24694 0.47605,-0.52897 0.58188,-0.84647 0.10583,-0.3175 0.15917,-0.65283 0.15917,-1.00561 0,-0.77612 -0.24715,-1.42886 -0.74104,-1.95803 -0.49389,-0.52916 -1.14663,-0.79375 -1.95803,-0.79375 z"
       style="fill:#0055ff;fill-opacity:1"
       id="path16" />
    <path
       d="m 144.62642,141.2454 c -2.78693,0 -5.2564,0.63531 -7.40832,1.9053 -2.15194,1.23472 -3.8456,2.96325 -5.08031,5.18573 -1.19945,2.18722 -1.79886,4.72745 -1.79886,7.62021 0,2.85749 0.6348,5.3972 1.90479,7.61969 1.30527,2.1872 3.08661,3.91574 5.34438,5.18573 2.29303,1.23472 4.90403,1.85208 7.83207,1.85208 1.62277,0 3.31591,-0.29945 5.07979,-0.89917 1.79916,-0.59971 3.29848,-1.37604 4.49792,-2.32854 0.59972,-0.4586 0.88174,-1.00521 0.84646,-1.64021 -0.0353,-0.63499 -0.35268,-1.21749 -0.9524,-1.74666 -0.45861,-0.38805 -1.00521,-0.56444 -1.64021,-0.52917 -0.59972,0 -1.16427,0.19434 -1.69343,0.5824 -0.70556,0.52916 -1.64032,1.00552 -2.80448,1.42885 -1.12889,0.38805 -2.24004,0.58188 -3.33365,0.58188 -2.01082,0 -3.79268,-0.44098 -5.34489,-1.32292 -1.55222,-0.88194 -2.769,-2.08129 -3.65094,-3.59823 -0.58938,-1.01373 -0.9636,-2.13085 -1.15911,-3.33365 h 20.10317 c 0.70555,0 1.28754,-0.21177 1.74615,-0.6351 0.4586,-0.45861 0.68781,-1.02316 0.68781,-1.69344 0,-2.78693 -0.52917,-5.23896 -1.5875,-7.35562 -1.02305,-2.15193 -2.52237,-3.82764 -4.49792,-5.02708 -1.97554,-1.23472 -4.33887,-1.85209 -7.09052,-1.85208 z m 0,4.55114 c 1.76388,0 3.2632,0.40559 4.49792,1.21698 1.23471,0.81138 2.18691,1.92254 2.85719,3.33364 0.4758,0.97666 0.78365,2.05602 0.93947,3.22823 h -17.59996 c 0.18165,-1.00088 0.46963,-1.94133 0.89143,-2.805 0.74082,-1.55221 1.81661,-2.76899 3.2277,-3.65094 1.44638,-0.88193 3.17543,-1.32291 5.18625,-1.32291 z"
       style="fill:#00ac00;fill-opacity:1"
       id="path15" />
    <path
       d="m 117.53298,129.07456 c -0.7761,0 -1.41142,0.24715 -1.90531,0.74104 -0.49389,0.49389 -0.74052,1.12868 -0.74052,1.9048 v 28.8928 c 0,1.90499 0.33483,3.59812 1.00511,5.0798 0.67027,1.44639 1.60555,2.59291 2.80499,3.43958 1.19945,0.84666 2.57518,1.27021 4.1274,1.27021 h 0.10594 c 1.05833,0 1.92233,-0.24715 2.5926,-0.74104 0.67028,-0.49389 1.00563,-1.1287 1.00563,-1.9048 0,-0.77611 -0.22921,-1.41142 -0.68782,-1.90532 -0.42333,-0.49387 -0.98787,-0.74052 -1.69343,-0.74052 h -1.32292 c -0.77611,0 -1.41142,-0.42354 -1.90531,-1.2702 -0.49389,-0.84667 -0.74052,-1.92243 -0.74052,-3.22771 v -28.8928 c 0,-0.77612 -0.24716,-1.41091 -0.74104,-1.9048 -0.49389,-0.49389 -1.12869,-0.74104 -1.9048,-0.74104 z"
       style="fill:#ffa000;fill-opacity:1"
       id="path14" />
    <path
       d="m 93.349962,141.2454 c -2.75166,0 -5.23855,0.65274 -7.46104,1.95801 -2.18722,1.27 -3.93368,3.01647 -5.23896,5.23896 -1.269993,2.22248 -1.904791,4.72734 -1.904791,7.51427 0,2.78694 0.581984,5.29126 1.746151,7.51375 1.19944,2.18721 2.82233,3.93369 4.86843,5.23895 2.04611,1.27001 4.35661,1.90479 6.93188,1.90479 2.575265,0 4.885771,-0.63482 6.931891,-1.90479 1.261767,-0.80491 2.354547,-1.77888 3.280927,-2.91919 v 1.9668 c 0,0.7761 0.24716,1.42886 0.74104,1.95802 0.52917,0.49389 1.18192,0.74053 1.95802,0.74053 0.77611,0 1.41091,-0.24664 1.9048,-0.74053 0.52916,-0.52916 0.79375,-1.18191 0.79375,-1.95802 v -11.80031 c 0,-2.78693 -0.65275,-5.29177 -1.95802,-7.51427 -1.27,-2.22249 -2.99852,-3.96896 -5.18573,-5.23895 -2.187227,-1.30528 -4.656683,-1.95802 -7.408348,-1.95802 z m 0,4.76248 c 1.799155,0 3.404111,0.44099 4.815211,1.32293 1.41112,0.84667 2.522787,2.02858 3.334177,3.54552 0.81138,1.48166 1.21698,3.17532 1.21698,5.08031 0,1.86972 -0.4056,3.56285 -1.21698,5.07979 -0.81139,1.48167 -1.923057,2.66358 -3.334177,3.54552 -1.4111,0.84667 -3.016056,1.26969 -4.815211,1.26969 -1.76388,0 -3.36882,-0.42302 -4.81521,-1.26969 -1.4111,-0.88194 -2.54021,-2.06385 -3.38687,-3.54552 -0.81139,-1.51694 -1.21698,-3.21007 -1.21698,-5.07979 0,-1.90499 0.40559,-3.59865 1.21698,-5.08031 0.84666,-1.51694 1.97577,-2.69885 3.38687,-3.54552 1.44639,-0.88194 3.05133,-1.32291 4.81521,-1.32293 z"
       style="fill:#ff0000;fill-opacity:1"
       id="path13" />
  </g>
</svg>
