<?xml version="1.0" encoding="UTF-8" standalone="no"?>
<!-- Created with Inkscape (http://www.inkscape.org/) -->

<svg
   width="79.05719mm"
   height="44.185417mm"
   viewBox="0 0 79.057191 44.185419"
   version="1.1"
   id="svg1"
   xmlns="http://www.w3.org/2000/svg"
   xmlns:svg="http://www.w3.org/2000/svg">
 
  <g
     id="layer1"
     transform="translate(-99.171499,-35.6219)">
    <path
       d="m 137.95931,38.267733 c -0.77611,0 -1.41142,0.247152 -1.90531,0.741041 -0.49389,0.493888 -0.74052,1.128682 -0.74052,1.904793 v 28.89281 c 0,1.904998 0.33483,3.598128 1.00511,5.079793 0.67027,1.446388 1.60555,2.592918 2.80499,3.439584 1.19945,0.846665 2.57518,1.270206 4.1274,1.270206 h 0.10594 c 1.05833,0 1.92233,-0.247151 2.5926,-0.74104 0.67028,-0.493888 1.00563,-1.128683 1.00563,-1.904793 0,-0.77611 -0.22921,-1.411422 -0.68782,-1.90531 -0.42333,-0.493889 -0.98788,-0.740523 -1.69343,-0.740523 h -1.32292 c -0.77611,0 -1.41142,-0.423541 -1.90531,-1.270207 -0.49389,-0.846666 -0.74052,-1.922434 -0.74052,-3.22771 v -28.89281 c 0,-0.776111 -0.24716,-1.410905 -0.74104,-1.904793 -0.49389,-0.493889 -1.12869,-0.741041 -1.9048,-0.741041 z"
       style="fill:#ffa000;fill-opacity:1"
       id="path14" />
    <path
       d="m 169.76202,35.6219 c -0.74083,0 -1.37562,0.264584 -1.90479,0.79375 l -5.18573,5.186247 c -0.42333,0.458611 -0.6351,1.058024 -0.6351,1.798857 0,0.77611 0.24663,1.428853 0.74052,1.95802 0.52917,0.493888 1.18191,0.74104 1.95802,0.74104 0.74083,0 1.35819,-0.247152 1.85208,-0.74104 l 5.13302,-5.13302 c 0.28222,-0.246945 0.47605,-0.528961 0.58188,-0.84646 0.10583,-0.3175 0.15916,-0.652846 0.15916,-1.005624 0,-0.77611 -0.24715,-1.428854 -0.74104,-1.95802 -0.49389,-0.529166 -1.14663,-0.79375 -1.95802,-0.79375 z"
       style="fill:#0055ff;fill-opacity:1"
       id="path16" />
    <path
       d="m 165.05275,50.438567 c -2.78693,0 -5.2564,0.635316 -7.40833,1.90531 -2.15194,1.234716 -3.8456,2.963241 -5.08031,5.18573 -1.19944,2.187211 -1.79886,4.727443 -1.79886,7.620207 0,2.857485 0.6348,5.397201 1.90479,7.61969 1.30527,2.187211 3.08661,3.915736 5.34438,5.185729 2.29304,1.234717 4.90404,1.852084 7.83208,1.852084 1.62277,0 3.31591,-0.299451 5.07979,-0.89917 1.79916,-0.599719 3.29848,-1.376045 4.49792,-2.32854 0.59972,-0.458609 0.88174,-1.005213 0.84646,-1.64021 -0.0353,-0.634997 -0.35268,-1.217499 -0.9524,-1.746664 -0.45861,-0.388053 -1.00521,-0.564444 -1.64021,-0.529166 -0.59972,0 -1.16427,0.19434 -1.69343,0.582393 -0.70556,0.529164 -1.64032,1.005522 -2.80448,1.428854 -1.12889,0.388053 -2.24004,0.581876 -3.33365,0.581876 -2.01082,0 -3.79268,-0.440976 -5.34489,-1.322916 -1.55222,-0.88194 -2.769,-2.081294 -3.65094,-3.59823 -0.58938,-1.013734 -0.9636,-2.130856 -1.15911,-3.333647 h 20.10317 c 0.70555,0 1.28754,-0.211772 1.74615,-0.635103 0.4586,-0.458609 0.68781,-1.023163 0.68781,-1.693437 0,-2.786931 -0.52917,-5.238967 -1.5875,-7.355624 -1.02305,-2.151933 -2.52237,-3.827644 -4.49792,-5.027083 -1.97554,-1.234716 -4.33887,-1.852083 -7.09052,-1.852083 z m 0,4.551143 c 1.76388,0 3.2632,0.405595 4.49792,1.21698 1.23471,0.811385 2.18691,1.922543 2.85719,3.333647 0.4758,0.97666 0.78365,2.056019 0.93947,3.228227 h -17.59996 c 0.18165,-1.000886 0.46963,-1.941336 0.89142,-2.804997 0.74083,-1.552215 1.81661,-2.769 3.22771,-3.65094 1.44638,-0.88194 3.17543,-1.322917 5.18625,-1.322917 z"
       style="fill:#00b000;fill-opacity:1"
       id="path15" />
    <path
       d="m 113.77629,50.438567 c -2.75166,0 -5.23855,0.652746 -7.46104,1.95802 -2.18722,1.269996 -3.93368,3.016463 -5.23896,5.238957 -1.269993,2.222493 -1.904791,4.727334 -1.904791,7.51427 0,2.786936 0.581984,5.29126 1.746151,7.513753 1.19944,2.187215 2.82233,3.933683 4.86843,5.238957 2.04611,1.269996 4.35661,1.904793 6.93188,1.904793 2.57527,0 4.88577,-0.634797 6.93188,-1.904793 1.26177,-0.804925 2.35455,-1.77889 3.28093,-2.919202 v 1.966805 c 0,0.776107 0.24716,1.428856 0.74104,1.95802 0.52917,0.493886 1.18192,0.740523 1.95802,0.740523 0.77611,0 1.41091,-0.246637 1.9048,-0.740523 0.52916,-0.529164 0.79375,-1.181913 0.79375,-1.95802 V 65.149814 c 0,-2.786936 -0.65275,-5.291777 -1.95802,-7.51427 -1.27,-2.222494 -2.99852,-3.968961 -5.18573,-5.238957 -2.18722,-1.305274 -4.65668,-1.95802 -7.40834,-1.95802 z m 0,4.7625 c 1.79916,0 3.40411,0.440975 4.81521,1.322916 1.41111,0.846665 2.52278,2.028581 3.33417,3.545521 0.81138,1.481662 1.21698,3.175315 1.21698,5.08031 0,1.869716 -0.4056,3.562853 -1.21698,5.079793 -0.81139,1.481662 -1.92306,2.663578 -3.33417,3.54552 -1.4111,0.846664 -3.01605,1.26969 -4.81521,1.26969 -1.76388,0 -3.36882,-0.423026 -4.81521,-1.26969 -1.4111,-0.881942 -2.54021,-2.063858 -3.38687,-3.54552 -0.81139,-1.51694 -1.21698,-3.210077 -1.21698,-5.079793 0,-1.904995 0.40559,-3.598648 1.21698,-5.08031 0.84666,-1.51694 1.97577,-2.698856 3.38687,-3.545521 1.44639,-0.881941 3.05133,-1.322916 4.81521,-1.322916 z"
       style="fill:#ff0000;fill-opacity:1"
       id="path13" />
  </g>
</svg>
